<svg xmlns="http://www.w3.org/2000/svg" viewBox="0 0 1214.15 1071.22"><defs><style>.cls-1,.cls-2,.cls-5,.cls-7,.cls-8{fill:none;}.cls-1,.cls-2,.cls-8{stroke:#000;}.cls-1,.cls-2,.cls-5,.cls-8{stroke-miterlimit:10;}.cls-1{stroke-width:11px;}.cls-2{stroke-width:12px;}.cls-3{fill:#d052e2;}.cls-4{fill:#fff;}.cls-5{stroke:#303030;}.cls-5,.cls-8{stroke-width:10px;}.cls-6{fill:#131313;}.cls-9{fill:#d83dee;}</style></defs><title>icnOrder</title><g id="Camisa"><path class="cls-1" d="M783.93,557h0Z" transform="translate(-465.85 -9)"/><path class="cls-1" d="M872.92,198.54,783.93,557Z" transform="translate(-465.85 -9)"/><path class="cls-1" d="M1050.89,84.83l-178,113.71Z" transform="translate(-465.85 -9)"/><polyline class="cls-1" points="761.79 303.86 657.97 354.38 543.36 128.26 585.05 75.83 761.79 303.86 761.79 396.71 761.79 994.77 496.06 994.77 496.06 601.45 496.06 396.71"/><line class="cls-1" x1="761.79" y1="75.83" x2="585.05" y2="75.83"/><path class="cls-2" d="M1680,557h0Z" transform="translate(-465.85 -9)"/><path class="cls-1" d="M1583.59,198.54l90.23,363.37Z" transform="translate(-465.85 -9)"/><path class="cls-1" d="M1405.62,84.83l181.06,116.8Z" transform="translate(-465.85 -9)"/><polyline class="cls-1" points="763.03 303.86 866.85 354.38 981.46 128.26 939.77 75.83 763.03 303.86 763.03 396.71 763.03 994.77 1028.76 994.77 1028.76 601.45 1028.76 396.71"/><line class="cls-1" x1="756.23" y1="75.83" x2="939.77" y2="75.83"/><polygon class="cls-3" points="852.02 460.22 939.77 460.22 939.77 504.71 939.77 547.97 852.02 547.97 852.02 460.22"/></g><g id="Celular"><rect class="cls-4" x="6" y="6" width="622.93" height="1059.22" rx="83.61"/><rect class="cls-2" x="6" y="6" width="622.93" height="1059.22" rx="83.61"/><path class="cls-4" d="M576.24,1036a83.61,83.61,0,0,1-83.62-83.61V137.67a83.61,83.61,0,0,1,83.62-83.61H986.48a83.62,83.62,0,0,1,83.63,83.61V952.39A83.62,83.62,0,0,1,986.48,1036Z" transform="translate(-465.85 -9)"/><path class="cls-2" d="M986.48,1036H576.24a83.61,83.61,0,0,1-83.62-83.61V137.67a83.61,83.61,0,0,1,83.62-83.61H986.48a83.62,83.62,0,0,1,83.63,83.61V952.39A83.62,83.62,0,0,1,986.48,1036Z" transform="translate(-465.85 -9)"/></g><g id="Logo_en_Celular" data-name="Logo en Celular"><path class="cls-5" d="M782.07,556.35s23.37.95,23.48-22.34l0-110.43" transform="translate(-465.85 -9)"/><path class="cls-5" d="M783.15,556.27s-22.3,1.06-22.41-22.24l0-110.13" transform="translate(-465.85 -9)"/><path class="cls-5" d="M626.34,400.62s-3.71,23.48,21,23.48l112.2,0,7.68,0" transform="translate(-465.85 -9)"/><path class="cls-5" d="M626,401.9s-1.07-21.95,22.6-22l111.91,0h45.31l111.91,0c23.67.1,22.6,22,22.6,22" transform="translate(-465.85 -9)"/><path class="cls-5" d="M940.28,400.62s1.09,23.22-22.59,23.33l-112.2-.05-6.11.2" transform="translate(-465.85 -9)"/><path class="cls-6" d="M805.55,631h56.3c9.54,0,9.23.25,22.62-17.5,7.14-9.48,5.82-29.21,6-36,.68-21.7-.75-48.67,0-102.61,0-3.3.27-10.05,4.76-16,5.71-7.63,15.43-9.61,20.74-10.27.43,0,25.61,1,25.49,26.31l0,156.06c.1,51.27-51.64,52.71-51.64,52.71H805.55" transform="translate(-465.85 -9)"/><path class="cls-7" d="M760.74,631h44.81" transform="translate(-465.85 -9)"/><path class="cls-6" d="M760.74,683.66h-84s-52.1-1.44-52-52.7v-156c-.1-25.49,25.5-26.32,25.5-26.32s13.35.43,20.74,10.28c4.52,6,4.75,12.87,4.75,16,.56,54,.83,81,0,132.43C675.69,612.72,695.24,631,705,631h55.77" transform="translate(-465.85 -9)"/><path class="cls-7" d="M805.55,683.66H760.74" transform="translate(-465.85 -9)"/><ellipse class="cls-8" cx="243.47" cy="455.07" rx="15.77" ry="15.52"/><rect class="cls-9" x="356.03" y="447.21" width="50.99" height="15.73"/></g></svg>