<svg id="Capa_1" data-name="Capa 1" xmlns="http://www.w3.org/2000/svg" viewBox="0 0 116.05 122"><defs><style>.cls-1,.cls-2{fill:#fff;}.cls-2{stroke:#000;stroke-miterlimit:10;stroke-width:3px;}</style></defs><title>icnSun2</title><circle class="cls-1" cx="58.02" cy="61" r="41.18"/><path d="M61.49,21.32A39.68,39.68,0,1,1,21.81,61,39.73,39.73,0,0,1,61.49,21.32m0-3A42.68,42.68,0,1,0,104.18,61,42.68,42.68,0,0,0,61.49,18.32Z" transform="translate(-3.47)"/><polygon class="cls-2" points="58.05 3 64.46 14.1 51.64 14.1 58.05 3"/><polygon class="cls-2" points="23.96 14.06 35.67 19.27 25.3 26.81 23.96 14.06"/><polygon class="cls-2" points="2.87 43.05 15.41 40.38 11.45 52.58 2.87 43.05"/><polygon class="cls-2" points="2.85 78.89 11.43 69.37 15.39 81.56 2.85 78.89"/><polygon class="cls-2" points="23.91 107.91 25.25 95.15 35.62 102.69 23.91 107.91"/><polygon class="cls-2" points="57.99 119 51.58 107.9 64.41 107.9 57.99 119"/><polygon class="cls-2" points="92.09 107.94 80.38 102.72 90.75 95.19 92.09 107.94"/><polygon class="cls-2" points="113.18 78.95 100.63 81.62 104.6 69.42 113.18 78.95"/><polygon class="cls-2" points="113.19 43.1 104.61 52.63 100.65 40.44 113.19 43.1"/><polygon class="cls-2" points="92.14 14.09 90.8 26.85 80.42 19.31 92.14 14.09"/><polygon class="cls-2" points="58.05 3 64.46 14.1 51.64 14.1 58.05 3"/></svg>