<svg xmlns="http://www.w3.org/2000/svg" viewBox="0 0 1534.15 535.41"><defs><style>.cls-1,.cls-3,.cls-4{fill:none;}.cls-1{stroke:#333;}.cls-1,.cls-4,.cls-6{stroke-miterlimit:10;}.cls-1,.cls-4{stroke-width:10px;}.cls-2{fill:#1a1a1a;}.cls-4,.cls-6{stroke:#000;}.cls-5{fill:#bc3fea;}.cls-6{font-size:361.72px;stroke-width:5px;font-family:KaushanScript-Regular, Kaushan Script;}.cls-7{letter-spacing:-0.11em;}.cls-8{letter-spacing:0em;}.cls-9{letter-spacing:-0.04em;}.cls-10{letter-spacing:-0.02em;}</style></defs><title>Talla&amp;apos;o Complete</title><g id="Capa_1" data-name="Capa 1"><path class="cls-1" d="M513.92,585.13s38.3,1.84,38.5-38.82l-.08-192.79" transform="translate(-238.85 -272.16)"/><path class="cls-1" d="M513.92,585.18s-38.31,1.84-38.5-38.83l.07-192.28" transform="translate(-238.85 -272.16)"/><path class="cls-1" d="M243.91,315.65s-1.84,38.31,38.83,38.5l192.78-.07h4.72" transform="translate(-238.85 -272.16)"/><path class="cls-1" d="M243.87,315.65s-1.85-38.3,38.82-38.49l192.28.07h77.85l192.27-.07c40.68.19,38.83,38.49,38.83,38.49" transform="translate(-238.85 -272.16)"/><path class="cls-1" d="M783.92,315.65s1.84,38.31-38.83,38.5l-192.78-.07H547.8" transform="translate(-238.85 -272.16)"/><path class="cls-2" d="M552.42,715.56h96.71c16.41,0,15.87.44,38.87-30.56,12.27-16.54,10-51,10.36-62.75,1.17-37.9-1.29-85,0-179.14.08-5.76.48-17.55,8.17-28,9.83-13.32,26.52-16.79,35.63-17.94.74,0,44,1.81,43.8,45.93l0,272.46c.18,89.48-88.71,92-88.71,92H552.42" transform="translate(-238.85 -272.16)"/><path class="cls-3" d="M475.42,715.56h77" transform="translate(-238.85 -272.16)"/><path class="cls-2" d="M475.42,807.57H331.17s-89.52-2.51-89.34-92V443.12c-.18-44.48,43.8-45.94,43.8-45.94s22.95.75,35.64,17.95c7.76,10.52,8.16,22.47,8.16,28,.95,94.29,1.42,141.44,0,231.21-.15,9.39,33.45,41.23,50.17,41.23h95.82" transform="translate(-238.85 -272.16)"/><path class="cls-3" d="M552.42,807.57h-77" transform="translate(-238.85 -272.16)"/><circle class="cls-4" cx="148.22" cy="152.05" r="27.1"/><rect class="cls-5" x="341.61" y="138.32" width="87.6" height="27.47"/></g><g id="Capa_2" data-name="Capa 2"><text class="cls-6" transform="translate(623.42 364.43)"><tspan class="cls-7">T</tspan><tspan x="171.82" y="0">al</tspan><tspan class="cls-8" x="427.18" y="0">l</tspan><tspan class="cls-9" x="511.1" y="0">a</tspan><tspan class="cls-10" x="665.19" y="0">’</tspan><tspan x="728.49" y="0">o</tspan></text></g></svg>