<svg id="Capa_1" data-name="Capa 1" xmlns="http://www.w3.org/2000/svg" viewBox="0 0 124.31 117.02"><defs><style>.cls-1{fill:none;stroke:#000;stroke-miterlimit:10;stroke-width:2px;}.cls-2{fill:#e82acd;}</style></defs><title>pants</title><path class="cls-1" d="M24.27,19.21l3.76.13a7.9,7.9,0,0,0,8.17-7.89V5" transform="translate(-0.85 -4)"/><path class="cls-1" d="M101.61,18.78l-4.93-.06a7.93,7.93,0,0,1-7.85-7.93V5" transform="translate(-0.85 -4)"/><rect class="cls-2" x="53.34" y="1" width="17.37" height="7.17"/><polygon class="cls-1" points="53.34 1 26.58 1 1.24 115.03 44.12 116 61.66 54.6 80.18 116 123.06 116 97.72 1 70.71 1 53.34 1"/><polyline class="cls-1" points="35.35 8.17 53.34 8.17 70.71 8.17 88.1 8.17"/><line class="cls-1" x1="53.34" y1="1" x2="53.34" y2="8.17"/><line class="cls-1" x1="70.71" y1="1" x2="70.71" y2="8.17"/></svg>