<svg xmlns="http://www.w3.org/2000/svg" viewBox="0 0 113.93 116.81"><defs><style>.cls-1{fill:none;}.cls-1,.cls-2{stroke:#000;stroke-miterlimit:10;stroke-width:2px;}.cls-2{fill:#d052e2;}</style></defs><title>sweater</title><g id="Capa_1" data-name="Capa 1"><path class="cls-1" d="M8.76,67.51h0Z" transform="translate(-7.8 -5.13)"/><path class="cls-1" d="M23,22,8.76,67.51Z" transform="translate(-7.8 -5.13)"/><path class="cls-1" d="M23.27,122" transform="translate(-7.8 -5.13)"/><polygon class="cls-1" points="57.07 12.47 78.09 1.28 83.34 8.29 62.39 27.38 57.07 12.47"/><path class="cls-1" d="M69.85,32.5" transform="translate(-7.8 -5.13)"/><polygon class="cls-1" points="56.59 12.47 35.56 1.28 30.32 8.29 51.26 27.38 56.59 12.47"/><path class="cls-1" d="M59.42,32.5" transform="translate(-7.8 -5.13)"/><path class="cls-1" d="M121.56,67.51h0Z" transform="translate(-7.8 -5.13)"/><path class="cls-1" d="M106,22l14.79,46.17Z" transform="translate(-7.8 -5.13)"/><path class="cls-1" d="M65.13,64.58m33.1-17.29V74.65l.62,46.29H31.79l-.63-46.29V47.29" transform="translate(-7.8 -5.13)"/><polygon class="cls-2" points="68.17 50.65 79.22 50.65 79.22 56.6 79.22 62.38 68.17 62.38 68.17 50.65"/><path class="cls-1" d="M91.08,36.89" transform="translate(-7.8 -5.13)"/><circle class="cls-1" cx="56.65" cy="21.12" r="1.06"/><circle class="cls-1" cx="56.65" cy="24.31" r="1.06"/><circle class="cls-1" cx="56.65" cy="27.51" r="1.06"/></g><g id="Capa_3" data-name="Capa 3"><polyline class="cls-1" points="98.7 17.37 78.2 2.37 35.7 2.37 14.7 17.37"/></g></svg>