<svg id="Capa_1" data-name="Capa 1" xmlns="http://www.w3.org/2000/svg" viewBox="0 0 60.14 60.57"><defs><style>.cls-1{fill:none;}.cls-1,.cls-2{stroke:#000;stroke-miterlimit:10;}.cls-2{fill:#d052e2;}</style></defs><title>shirt</title><path class="cls-1" d="M-.67,33.08Z" transform="translate(0.16 0.82)"/><path class="cls-1" d="M6.35,7.72l-6,24.36Z" transform="translate(0.16 0.82)"/><path class="cls-1" d="M18.4,0l-12,7.73Z" transform="translate(0.16 0.82)"/><polyline class="cls-1" points="30.53 16.31 23.5 19.74 15.74 4.37 18.56 0.81 30.53 16.31 30.53 22.62 30.86 60.07 12.87 60.07 12.54 36.53 12.54 22.62"/><path class="cls-1" d="M29.37,1h-12L18.63.35" transform="translate(0.16 0.82)"/><path class="cls-1" d="M60,31.08Z" transform="translate(0.16 0.82)"/><path class="cls-1" d="M54.47,7.72l5,21.78Z" transform="translate(0.16 0.82)"/><path class="cls-1" d="M42.42,0,54.68,7.93Z" transform="translate(0.16 0.82)"/><polyline class="cls-1" points="30.61 16.31 37.64 19.74 45.4 4.37 42.58 0.81 30.61 16.31 30.61 22.62 30.95 60.07 48.94 60.07 48.6 36.53 48.6 22.62"/><line class="cls-1" x1="29.57" y1="1.81" x2="42" y2="1.81"/><polygon class="cls-2" points="36.64 26.93 42.58 26.93 42.58 29.96 42.58 32.9 36.64 32.9 36.64 26.93"/></svg>