<svg xmlns="http://www.w3.org/2000/svg" viewBox="0 0 109.09 77.23"><defs><style>.cls-1,.cls-2,.cls-5{fill:#fff;}.cls-1,.cls-4,.cls-5{stroke:#000;stroke-miterlimit:10;}.cls-1,.cls-4{stroke-width:2px;}.cls-3{fill:#f0f;}.cls-4{fill:none;}</style></defs><title>hook</title><g id="Capa_3" data-name="Capa 3"><path class="cls-1" d="M49,38.25" transform="translate(-8.65 -10.38)"/><path class="cls-2" d="M48.55,15.9A16.12,16.12,0,1,1,59.74,43.63V63" transform="translate(-8.65 -10.38)"/><path d="M60.74,63h-2V42.63h1a15.13,15.13,0,1,0-10.5-26l-1.39-1.44A17.12,17.12,0,1,1,60.74,44.6Z" transform="translate(-8.65 -10.38)"/><path class="cls-2" d="M43.62,27.5a16.07,16.07,0,0,1,4.93-11.6" transform="translate(-8.65 -10.38)"/><path class="cls-3" d="M44.62,27.5h-2a17,17,0,0,1,5.23-12.32l1.39,1.44A15,15,0,0,0,44.62,27.5Z" transform="translate(-8.65 -10.38)"/><path class="cls-2" d="M43.62,27.5" transform="translate(-8.65 -10.38)"/><path class="cls-4" d="M43.62,27.5" transform="translate(-8.65 -10.38)"/><path class="cls-1" d="M59.21,58.6,10.3,84.36a1.2,1.2,0,0,0,.55,2.26H115.54a1.2,1.2,0,0,0,.5-2.29L60.28,58.58A1.22,1.22,0,0,0,59.21,58.6Z" transform="translate(-8.65 -10.38)"/></g><g id="Capa_2" data-name="Capa 2"><path class="cls-5" d="M43.5,27.5" transform="translate(-8.65 -10.38)"/></g></svg>