<svg id="Capa_1" data-name="Capa 1" xmlns="http://www.w3.org/2000/svg" viewBox="0 0 86.13 111.87"><defs><style>.cls-1,.cls-2{fill:none;stroke-miterlimit:10;}.cls-1{stroke:#000;stroke-width:2px;}.cls-2{stroke:#f0f;stroke-width:0.5px;}</style></defs><title>largeSuit</title><path class="cls-1" d="M47.43,18.38" transform="translate(-17.46 -8.5)"/><path class="cls-1" d="M42.74,66.37,18.91,107.53a3.33,3.33,0,0,0,2.65,5l5.18.36" transform="translate(-17.46 -8.5)"/><path class="cls-1" d="M47.24,70.66l-20.76,44a3.32,3.32,0,0,0,3,4.74H60.24" transform="translate(-17.46 -8.5)"/><path class="cls-1" d="M44.24,119.37" transform="translate(-17.46 -8.5)"/><line class="cls-1" x1="35.78" y1="83.68" x2="21.78" y2="110.87"/><path class="cls-1" d="M77.74,65.87l24.52,42.75a2.5,2.5,0,0,1-2,3.73l-6.53.46" transform="translate(-17.46 -8.5)"/><path class="cls-1" d="M73.24,70.2l21.34,45.61a2.5,2.5,0,0,1-2.26,3.56H60.24" transform="translate(-17.46 -8.5)"/><path class="cls-1" d="M76.24,119.37" transform="translate(-17.46 -8.5)"/><line class="cls-1" x1="49.78" y1="83.43" x2="63.78" y2="110.87"/><polyline class="cls-2" points="36.42 12.59 48.28 13.37 36.78 15.87 47.91 16.04 37.18 19.49 46.44 20.32 40.12 23.13 44.46 22.81 37.82 21.08 47.52 17.95 37.06 17.25 47.97 14.83 36.78 13.87 47.78 12.87"/><path class="cls-1" d="M69.5,19.5" transform="translate(-17.46 -8.5)"/><path class="cls-1" d="M69.72,19.4l-4,.47-1,8-5,6-5-5-1-8-3.62-.79c-.37-1.42.38-10.58.38-10.58h-3v5A5.76,5.76,0,0,1,45.32,19l-3-.65,7.39,30.49-7.39,18.5h36L71.74,49l6.61-30.63L75,18.77S73.5,17.5,73.5,12.5v-3h-4S71,19.3,69.72,19.4Z" transform="translate(-17.46 -8.5)"/><path class="cls-1" d="M90.5,13.5" transform="translate(-17.46 -8.5)"/></svg>