<svg id="Capa_1" data-name="Capa 1" xmlns="http://www.w3.org/2000/svg" viewBox="0 0 90.76 95"><defs><style>.cls-1{fill:#fff;}.cls-2{fill:#f0f;stroke:#000;stroke-miterlimit:10;stroke-width:0.75px;}</style></defs><title>quilt</title><path d="M99.39,21A6.61,6.61,0,0,1,106,27.61V51.39A6.61,6.61,0,0,1,99.39,58H26.61A6.61,6.61,0,0,1,20,51.39V27.61A6.61,6.61,0,0,1,26.61,21H99.39m0-2H26.61A8.6,8.6,0,0,0,18,27.61V51.39A8.6,8.6,0,0,0,26.61,60H99.39A8.6,8.6,0,0,0,108,51.39V27.61A8.6,8.6,0,0,0,99.39,19Z" transform="translate(-17.52 -19)"/><path d="M99.39,62A6.61,6.61,0,0,1,106,68.61v36.78A6.61,6.61,0,0,1,99.39,112H26.61A6.61,6.61,0,0,1,20,105.39V68.61A6.61,6.61,0,0,1,26.61,62H99.39m0-2H26.61A8.6,8.6,0,0,0,18,68.61v36.78A8.6,8.6,0,0,0,26.61,114H99.39a8.6,8.6,0,0,0,8.61-8.61V68.61A8.6,8.6,0,0,0,99.39,60Z" transform="translate(-17.52 -19)"/><path class="cls-1" d="M18.5,80.5s18,20,37,15" transform="translate(-17.52 -19)"/><path d="M19.24,79.83a60.07,60.07,0,0,0,7.52,7,53.35,53.35,0,0,0,8.67,5.58,42.38,42.38,0,0,0,4.75,2,34.39,34.39,0,0,0,5,1.32,29.69,29.69,0,0,0,5.16.41,27.29,27.29,0,0,0,5.16-.65,27.09,27.09,0,0,1-5.15.9,28.79,28.79,0,0,1-5.25-.17A34.94,34.94,0,0,1,40,95.14a43.26,43.26,0,0,1-5-1.85A55,55,0,0,1,25.86,88a61.07,61.07,0,0,1-8.1-6.85Z" transform="translate(-17.52 -19)"/><path class="cls-1" d="M18.3,70S27.5,81.5,35.5,80.5" transform="translate(-17.52 -19)"/><path d="M19.08,69.42a42.75,42.75,0,0,0,3.3,3.87,36.4,36.4,0,0,0,3.78,3.46,20.07,20.07,0,0,0,4.34,2.7,10.74,10.74,0,0,0,5,1,11,11,0,0,1-5.18-.58,21,21,0,0,1-4.74-2.36,35.41,35.41,0,0,1-4.23-3.18,44.58,44.58,0,0,1-3.83-3.71Z" transform="translate(-17.52 -19)"/><path class="cls-1" d="M18.5,89.5s13,4,17,13" transform="translate(-17.52 -19)"/><path d="M18.79,88.54a40.5,40.5,0,0,1,5.11,2.39,39.12,39.12,0,0,1,4.68,3,28.11,28.11,0,0,1,4.05,3.81,19.18,19.18,0,0,1,2.87,4.71,18.86,18.86,0,0,0-3.24-4.37A27.84,27.84,0,0,0,28,94.8a37.57,37.57,0,0,0-4.78-2.52,37.37,37.37,0,0,0-5-1.82Z" transform="translate(-17.52 -19)"/><path class="cls-1" d="M107.3,82.5s-18,20-37,15" transform="translate(-17.52 -19)"/><path d="M108,83.17A61.15,61.15,0,0,1,99.93,90a54.53,54.53,0,0,1-9.13,5.27,44.72,44.72,0,0,1-5,1.85,34.94,34.94,0,0,1-5.15,1.09,28.84,28.84,0,0,1-5.25.17,27.09,27.09,0,0,1-5.15-.9,27.29,27.29,0,0,0,5.16.65,29.69,29.69,0,0,0,5.16-.41,34.39,34.39,0,0,0,5-1.32,43.18,43.18,0,0,0,4.75-2A53.35,53.35,0,0,0,99,88.81a59.3,59.3,0,0,0,7.51-7Z" transform="translate(-17.52 -19)"/><path class="cls-1" d="M107.5,72S98.3,83.5,90.3,82.5" transform="translate(-17.52 -19)"/><path d="M108.28,72.67a44.58,44.58,0,0,1-3.83,3.71,36.34,36.34,0,0,1-4.24,3.18,20.91,20.91,0,0,1-4.73,2.36,11,11,0,0,1-5.18.58,10.74,10.74,0,0,0,5-1,20.32,20.32,0,0,0,4.34-2.7,36.4,36.4,0,0,0,3.78-3.46,42.75,42.75,0,0,0,3.3-3.87Z" transform="translate(-17.52 -19)"/><path class="cls-1" d="M107.3,91.5s-13,4-17,13" transform="translate(-17.52 -19)"/><path d="M107.59,92.46a36.88,36.88,0,0,0-5,1.82,37.57,37.57,0,0,0-4.78,2.52,27.92,27.92,0,0,0-4.26,3.33,18.82,18.82,0,0,0-3.23,4.37,18.88,18.88,0,0,1,2.87-4.71,28.11,28.11,0,0,1,4-3.81,39.12,39.12,0,0,1,4.68-3,41,41,0,0,1,5.1-2.39Z" transform="translate(-17.52 -19)"/><polygon class="cls-2" points="38.48 11.89 39.69 14.34 42.39 14.73 40.43 16.63 40.9 19.32 38.48 18.05 36.07 19.32 36.53 16.63 34.58 14.73 37.27 14.34 38.48 11.89"/><polygon class="cls-2" points="10.48 7.89 11.69 10.34 14.39 10.73 12.43 12.63 12.89 15.32 10.48 14.05 8.07 15.32 8.53 12.63 6.58 10.73 9.28 10.34 10.48 7.89"/><polygon class="cls-2" points="43.48 59.89 44.69 62.34 47.39 62.73 45.43 64.63 45.9 67.32 43.48 66.05 41.07 67.32 41.53 64.63 39.58 62.73 42.27 62.34 43.48 59.89"/><polygon class="cls-2" points="41.48 72.89 42.69 75.34 45.39 75.73 43.43 77.63 43.9 80.32 41.48 79.05 39.07 80.32 39.53 77.63 37.58 75.73 40.27 75.34 41.48 72.89"/><polygon class="cls-2" points="28.48 51.71 29.1 52.96 30.48 53.16 29.48 54.13 29.72 55.51 28.48 54.86 27.25 55.51 27.48 54.13 26.48 53.16 27.86 52.96 28.48 51.71"/><polygon class="cls-2" points="16.48 29.71 17.1 30.96 18.48 31.16 17.48 32.13 17.72 33.51 16.48 32.86 15.25 33.51 15.48 32.13 14.48 31.16 15.86 30.96 16.48 29.71"/><polygon class="cls-2" points="62.48 47.71 63.1 48.96 64.48 49.16 63.48 50.13 63.72 51.51 62.48 50.86 61.25 51.51 61.48 50.13 60.48 49.16 61.86 48.96 62.48 47.71"/><polygon class="cls-2" points="74.48 25.71 75.1 26.96 76.48 27.16 75.48 28.13 75.72 29.51 74.48 28.86 73.25 29.51 73.48 28.13 72.48 27.16 73.86 26.96 74.48 25.71"/><polygon class="cls-2" points="66.48 4.89 67.69 7.34 70.39 7.73 68.43 9.63 68.89 12.32 66.48 11.05 64.07 12.32 64.53 9.63 62.58 7.73 65.28 7.34 66.48 4.89"/></svg>