<svg xmlns="http://www.w3.org/2000/svg" viewBox="0 0 110.36 110"><defs><style>.cls-1,.cls-3,.cls-4{fill:#e82acd;}.cls-2{fill:none;}.cls-2,.cls-3,.cls-4{stroke:#000;stroke-miterlimit:10;}.cls-2,.cls-3{stroke-width:2px;}</style></defs><title>pleatedskirt</title><g id="Capa_1" data-name="Capa 1"><path class="cls-1" d="M100,18.43l-.4.07h-74l-.25,0c.42-2.65.83-5.31,1.25-8h72Z" transform="translate(-8.47 -9.5)"/><path class="cls-2" d="M25.39,18.46c.42-2.65.83-5.31,1.25-8h72l1.4,7.93,0,.14,17.58,99.93H9.64L25.36,18.64Z" transform="translate(-8.47 -9.5)"/><line class="cls-2" x1="17.17" y1="9" x2="91.17" y2="9"/><line class="cls-3" x1="54.03" y1="40" x2="54.03" y2="109"/><path class="cls-3" d="M91.5,118.5" transform="translate(-8.47 -9.5)"/><path class="cls-3" d="M91.5,49.5" transform="translate(-8.47 -9.5)"/><line class="cls-3" x1="17.03" y1="109" x2="24.03" y2="40"/><line class="cls-3" x1="96.03" y1="109" x2="83.03" y2="40"/><path class="cls-3" d="M32.5,49.5" transform="translate(-8.47 -9.5)"/></g><g id="Capa_2" data-name="Capa 2"><path class="cls-4" d="M98.38,118.5" transform="translate(-8.47 -9.5)"/></g></svg>