<svg id="Capa_1" data-name="Capa 1" xmlns="http://www.w3.org/2000/svg" viewBox="0 0 828.05 1077.73"><defs><style>.cls-1,.cls-2{fill:none;stroke:#000;stroke-miterlimit:10;}.cls-1{stroke-width:11px;}.cls-2{stroke-width:12px;}.cls-3{fill:#d052e2;}</style></defs><title>icnShirt</title><path class="cls-1" d="M528,682.33h0Z" transform="translate(-522.64 0.23)"/><path class="cls-1" d="M609.7,333,528,682.33Z" transform="translate(-522.64 0.23)"/><path class="cls-1" d="M773.11,222.2,609.7,333Z" transform="translate(-522.64 0.23)"/><polyline class="cls-1" points="412.73 444.66 317.41 493.9 212.19 273.52 250.46 222.43 412.73 444.66 412.73 535.15 417.27 1072.23 173.3 1072.23 168.76 734.68 168.76 535.15"/><polyline class="cls-1" points="412.73 222.43 250.46 222.43 417.66 129.95 576.14 222.43"/><path class="cls-2" d="M1350.7,682.33h0Z" transform="translate(-522.64 0.23)"/><path class="cls-1" d="M1262.19,333,1345,687.15Z" transform="translate(-522.64 0.23)"/><path class="cls-1" d="M1098.78,222.2,1265,336Z" transform="translate(-522.64 0.23)"/><polyline class="cls-1" points="413.87 444.66 509.19 493.9 614.41 273.52 576.14 222.43 413.87 444.66 413.87 535.15 418.41 1072.23 662.38 1072.23 657.84 734.68 657.84 535.15"/><line class="cls-1" x1="413.3" y1="222.43" x2="581.81" y2="222.43"/><polygon class="cls-3" points="495.57 597.04 576.14 597.04 576.14 640.4 576.14 682.56 495.57 682.56 495.57 597.04"/><polyline class="cls-1" points="417.66 129.95 417.66 41.44 455.11 7.39 495.96 43.71"/></svg>