<svg id="Centro_del_sol" data-name="Centro del sol" xmlns="http://www.w3.org/2000/svg" viewBox="0 0 1025.85 1078.47"><defs><style>.cls-1,.cls-2{fill:#fff;}.cls-2{stroke:#000;stroke-miterlimit:10;stroke-width:13px;}</style></defs><title>icnSun</title><path class="cls-1" d="M1078.44,921.52a379.56,379.56,0,1,1,148.2-29.92A378.42,378.42,0,0,1,1078.44,921.52Z" transform="translate(-565.52 -1.54)"/><path d="M1078.44,166.53a373,373,0,1,1-145.67,29.4,371.91,371.91,0,0,1,145.67-29.4m0-13c-213.87,0-387.24,173.37-387.24,387.24S864.57,928,1078.44,928s387.25-173.38,387.25-387.25-173.38-387.24-387.25-387.24Z" transform="translate(-565.52 -1.54)"/><polygon class="cls-2" points="513.19 13 571.36 113.75 455.02 113.75 513.19 13"/><polygon class="cls-2" points="203.82 113.35 310.1 160.66 215.99 229.04 203.82 113.35"/><polygon class="cls-2" points="12.53 376.37 126.32 352.18 90.37 462.82 12.53 376.37"/><polygon class="cls-2" points="12.36 701.6 90.21 615.14 126.16 725.78 12.36 701.6"/><polygon class="cls-2" points="203.4 964.81 215.56 849.11 309.67 917.49 203.4 964.81"/><polygon class="cls-2" points="512.66 1065.47 454.49 964.72 570.83 964.72 512.66 1065.47"/><polygon class="cls-2" points="822.02 965.12 715.74 917.8 809.86 849.42 822.02 965.12"/><polygon class="cls-2" points="1013.32 702.1 899.52 726.29 935.48 615.65 1013.32 702.1"/><polygon class="cls-2" points="1013.48 376.87 935.64 463.32 899.69 352.68 1013.48 376.87"/><polygon class="cls-2" points="822.45 113.66 810.29 229.35 716.17 160.97 822.45 113.66"/><polygon class="cls-2" points="513.19 13 571.36 113.75 455.02 113.75 513.19 13"/></svg>