<svg xmlns="http://www.w3.org/2000/svg" viewBox="0 0 1531.65 535.41"><defs><style>.cls-1,.cls-3,.cls-4{fill:none;}.cls-1{stroke:#333;}.cls-1,.cls-4,.cls-6{stroke-miterlimit:10;}.cls-1,.cls-4{stroke-width:10px;}.cls-2{fill:#1a1a1a;}.cls-4,.cls-6{stroke:#000;}.cls-5{fill:#bc3fea;}.cls-6{stroke-width:5px;}</style></defs><title>Talla&amp;apos;o Complete</title><g id="Capa_1" data-name="Capa 1"><path class="cls-1" d="M513.92,585.13s38.3,1.84,38.5-38.82l-.08-192.79" transform="translate(-238.85 -272.16)"/><path class="cls-1" d="M513.92,585.18s-38.31,1.84-38.5-38.83l.07-192.28" transform="translate(-238.85 -272.16)"/><path class="cls-1" d="M243.91,315.65s-1.84,38.31,38.83,38.5l192.78-.07h4.72" transform="translate(-238.85 -272.16)"/><path class="cls-1" d="M243.87,315.65s-1.85-38.3,38.82-38.49l192.28.07h77.85l192.27-.07c40.68.19,38.83,38.49,38.83,38.49" transform="translate(-238.85 -272.16)"/><path class="cls-1" d="M783.92,315.65s1.84,38.31-38.83,38.5l-192.78-.07H547.8" transform="translate(-238.85 -272.16)"/><path class="cls-2" d="M552.42,715.56h96.71c16.41,0,15.87.44,38.87-30.56,12.27-16.54,10-51,10.36-62.75,1.17-37.9-1.29-85,0-179.14.08-5.76.48-17.55,8.17-28,9.83-13.32,26.52-16.79,35.63-17.94.74,0,44,1.81,43.8,45.93l0,272.46c.18,89.48-88.71,92-88.71,92H552.42" transform="translate(-238.85 -272.16)"/><path class="cls-3" d="M475.42,715.56h77" transform="translate(-238.85 -272.16)"/><path class="cls-2" d="M475.42,807.57H331.17s-89.52-2.51-89.34-92V443.12c-.18-44.48,43.8-45.94,43.8-45.94s22.95.75,35.64,17.95c7.76,10.52,8.16,22.47,8.16,28,.95,94.29,1.42,141.44,0,231.21-.15,9.39,33.45,41.23,50.17,41.23h95.82" transform="translate(-238.85 -272.16)"/><path class="cls-3" d="M552.42,807.57h-77" transform="translate(-238.85 -272.16)"/><circle class="cls-4" cx="148.22" cy="152.05" r="27.1"/><rect class="cls-5" x="341.61" y="138.32" width="87.6" height="27.47"/></g><g id="Capa_2" data-name="Capa 2"><path class="cls-6" d="M940.4,389.55a38.11,38.11,0,0,1,3.26-13.75c6.15,2.9,19.17,4,35.45,4,49.55,0,132.38-10.13,145-10.13,17.73,0,24.24,14.47,28.22,36.54-12.3-1.09-25.68-1.81-34.37-1.81a420.13,420.13,0,0,0-47,2.89c-13.74,27.49-33.28,80.3-44.13,113.22-21,64-31.47,105.62-38,146.49-16.63-2.53-29.66-12.66-40.51-30.38,8-30,21-68.37,47.39-141.07,10.12-27.49,21.7-60,27.49-82.47-20.26,2.53-38.71,4.34-52.81,4.34C951.26,417.4,940.4,405.1,940.4,389.55Z" transform="translate(-238.85 -272.16)"/><path class="cls-6" d="M1220.74,503.13c-19.54,40.51-32.92,83.19-32.92,107.78,0,13.39,2.89,22.79,9.4,26.41-5.78,3.62-16.27,6.51-23.51,6.51-13,0-19.53-8.68-19.53-26.77,0-13.38,4.7-32.91,13.75-56.42-19.54,44.13-51.37,80.3-73.79,83.91-17.73-.72-30-18.81-30-43.76,0-53.9,52.09-127.69,91.16-129.86,9.76,2.53,26,19.53,27.12,28.58-38.7,6.15-86.08,70.17-86.08,114.66,0,5.06,1.81,7.6,5.06,8.68,14.11-2.89,31.47-23.15,57.51-66.55,10.13-17,24.6-44.13,35.09-65.84C1204.1,490.46,1221.1,498.42,1220.74,503.13Z" transform="translate(-238.85 -272.16)"/><path class="cls-6" d="M1267.75,501.68c29.67-81,55.71-134.92,80.67-165.3,11.57,2.17,36.53,16.64,40.51,22.78-37.62,44.49-64.75,93.33-88.62,159.52-20.26,56.43-31.11,103.45-31.11,133.83,0,8.32,0,8.68.36,10.49-6.51-.72-11.93-3.62-13.38-6.87-1.09-2.53-6.51-8.32-9.77-10.49-4.34-2.89-7.59-16.64-7.59-32.19C1238.82,592.47,1249.31,552.32,1267.75,501.68Z" transform="translate(-238.85 -272.16)"/><path class="cls-6" d="M1353.12,501.68c29.66-81,55.7-134.92,80.66-165.3,11.57,2.17,36.53,16.64,40.51,22.78-37.62,44.49-64.75,93.33-88.62,159.52-20.25,56.43-31.11,103.45-31.11,133.83,0,8.32,0,8.68.37,10.49-6.51-.72-11.94-3.62-13.39-6.87-1.08-2.53-6.51-8.32-9.76-10.49-4.34-2.89-7.6-16.64-7.6-32.19C1324.18,592.47,1334.67,552.32,1353.12,501.68Z" transform="translate(-238.85 -272.16)"/><path class="cls-6" d="M1560,503.13c-19.53,40.51-32.91,83.19-32.91,107.78,0,13.39,2.89,22.79,9.4,26.41-5.78,3.62-16.27,6.51-23.51,6.51-13,0-19.53-8.68-19.53-26.77,0-13.38,4.7-32.91,13.75-56.42-19.54,44.13-51.37,80.3-73.79,83.91-17.73-.72-30-18.81-30-43.76,0-53.9,52.09-127.69,91.15-129.86,9.77,2.53,26,19.53,27.13,28.58-38.7,6.15-86.08,70.17-86.08,114.66,0,5.06,1.8,7.6,5.06,8.68,14.11-2.89,31.47-23.15,57.51-66.55,10.13-17,24.6-44.13,35.09-65.84C1543.38,490.46,1560.38,498.42,1560,503.13Z" transform="translate(-238.85 -272.16)"/><path class="cls-6" d="M1608.48,432.59c11.94-20.25,17-39.79,17-65.11a258.15,258.15,0,0,0-2.17-31.83c24.59,1.45,48.46,13.75,51.36,25.68-9,39.79-28.94,68.37-60.41,85C1611.38,443.8,1608.48,437.29,1608.48,432.59Z" transform="translate(-238.85 -272.16)"/><path class="cls-6" d="M1623.32,590.66c0-38.7,25-85.37,59-110.32,13-9.77,26-14.83,37.25-14.83,7.6,4,15.55,13,22.79,25.68,2.17,0,4.34-.36,6.51-.36,13,0,19.17,10.85,19.17,34,0,60.4-41.6,112.13-99.47,124.43C1641,646.36,1623.32,623.21,1623.32,590.66Zm34.36,18.08c0,11.58,4.7,24.24,9.4,25.69,43.05-9.41,74.52-55.71,74.52-112.13,0-12.3-1.45-19.17-4.71-24.24-21,6.15-38,21.7-49.91,37.26C1670.34,557.38,1657.68,589.57,1657.68,608.74Z" transform="translate(-238.85 -272.16)"/></g></svg>