<svg id="Capa_1" data-name="Capa 1" xmlns="http://www.w3.org/2000/svg" viewBox="0 0 38 116.5"><defs><style>.cls-1{fill:none;stroke:#000;}.cls-1,.cls-2{stroke-miterlimit:10;stroke-width:2px;}.cls-2{fill:#f0f;stroke:#f0f;}</style></defs><title>overall</title><polygon class="cls-1" points="9 1 9 11 9 19 6 19 6 1 9 1"/><polygon class="cls-1" points="31 1 31 11 31 19 28 19 28 1 31 1"/><rect class="cls-1" x="1" y="19" width="36" height="37"/><path class="cls-1" d="M45.5,60.5v57.69A1.81,1.81,0,0,0,47.31,120h9.38a1.81,1.81,0,0,0,1.81-1.81V83.31a1.81,1.81,0,0,1,1.81-1.81h6.38a1.81,1.81,0,0,1,1.81,1.81v34.88A1.81,1.81,0,0,0,70.31,120h9.38a1.81,1.81,0,0,0,1.81-1.81V60.5" transform="translate(-44.5 -4.5)"/><line class="cls-1" x1="7.04" y1="58.15" x2="37" y2="58"/><line class="cls-1" x1="1" y1="58.19" x2="7.04" y2="58.15"/><path class="cls-1" d="M51.63,62.71a4.5,4.5,0,0,1-6,5.87" transform="translate(-44.5 -4.5)"/><path class="cls-1" d="M75,62.71a4.5,4.5,0,0,0,6,5.87" transform="translate(-44.5 -4.5)"/><path class="cls-2" d="M72,33h3v4l-.42.42A1.61,1.61,0,0,1,72,37h0V33" transform="translate(-44.5 -4.5)"/></svg>