<svg xmlns="http://www.w3.org/2000/svg" viewBox="0 0 123.39 99.49"><defs><style>.cls-1,.cls-3{fill:none;}.cls-1,.cls-2,.cls-3{stroke:#000;stroke-miterlimit:10;}.cls-1{stroke-width:2px;}.cls-2{fill:#f0f;stroke-width:0.5px;}</style></defs><title>blouse</title><g id="Capa_1" data-name="Capa 1"><path class="cls-1" d="M22.27,24.54l-20,22.93Z" transform="translate(-0.19 -9.51)"/><path class="cls-1" d="M25.19,115" transform="translate(-0.19 -9.51)"/><circle class="cls-2" cx="61.39" cy="30.09" r="0.94"/><circle class="cls-2" cx="61.39" cy="34.91" r="0.94"/><circle class="cls-2" cx="61.33" cy="38.92" r="0.94"/><circle class="cls-2" cx="61.33" cy="43.68" r="0.94"/><circle class="cls-2" cx="61.33" cy="48.44" r="0.94"/><path class="cls-1" d="M101.09,24.76,81.81,10.65A53.92,53.92,0,0,1,62.5,14.5a53.89,53.89,0,0,1-20.68-3.85L22.06,24.76" transform="translate(-0.19 -9.51)"/><polyline class="cls-1" points="18.05 32.31 2.06 37.95 10.53 44.54 24.64 30.43"/><path class="cls-1" d="M13.54,59.64,6.36,49.82Z" transform="translate(-0.19 -9.51)"/><path class="cls-1" d="M101,24.89l20.48,23.52Z" transform="translate(-0.19 -9.51)"/><path class="cls-1" d="M61.59,65.21m39.23-15.86,9.41,12.23H97.06L91.6,49.94l0,.35" transform="translate(-0.19 -9.51)"/><polyline class="cls-1" points="105.34 33.25 121.33 38.89 112.86 45.48 98.75 31.36"/><path class="cls-1" d="M110.23,61.58l7.18-9.82Z" transform="translate(-0.19 -9.51)"/><polyline class="cls-1" points="12.4 49.36 17.81 52.48 35.81 35.48 35.81 98.48 89.81 98.48 89.81 36.48"/></g><g id="Capa_2" data-name="Capa 2"><path class="cls-3" d="M41.77,10.77s-1.89,21.31,6.58,21.31S61.52,30.44,61.52,37" transform="translate(-0.19 -9.51)"/><path class="cls-3" d="M82,10.77s1.88,21.31-6.58,21.31S62.29,30.44,62.29,37" transform="translate(-0.19 -9.51)"/></g></svg>