<svg id="Capa_1" data-name="Capa 1" xmlns="http://www.w3.org/2000/svg" viewBox="0 0 86.13 120.99"><defs><style>.cls-1{fill:none;stroke:#000;}.cls-1,.cls-2{stroke-miterlimit:10;stroke-width:2px;}.cls-2{fill:#f0f;stroke:#f0f;}</style></defs><title>jumper</title><polygon class="cls-1" points="32.89 1 32.89 11 32.89 19 29.89 19 29.89 1 32.89 1"/><polygon class="cls-1" points="54.89 1 54.89 11 54.89 19 51.89 19 51.89 1 54.89 1"/><rect class="cls-1" x="24.89" y="19" width="36" height="48.99"/><path class="cls-2" d="M71.61,31.51h3v4l-.42.42a1.61,1.61,0,0,1-2.58-.42h0v-4" transform="translate(-20.22 -3.01)"/><path class="cls-1" d="M45.5,70,21.67,111.16a3.32,3.32,0,0,0,2.65,5l5.18.36" transform="translate(-20.22 -3.01)"/><path class="cls-1" d="M50,74.29l-20.76,44a3.32,3.32,0,0,0,3,4.74H63" transform="translate(-20.22 -3.01)"/><path class="cls-1" d="M47,123" transform="translate(-20.22 -3.01)"/><line class="cls-1" x1="35.78" y1="92.8" x2="21.78" y2="119.99"/><path class="cls-1" d="M80.5,69.5,105,112.25a2.5,2.5,0,0,1-2,3.73l-6.53.46" transform="translate(-20.22 -3.01)"/><path class="cls-1" d="M76,73.83l21.34,45.61A2.5,2.5,0,0,1,95.07,123H63" transform="translate(-20.22 -3.01)"/><path class="cls-1" d="M79,123" transform="translate(-20.22 -3.01)"/><line class="cls-1" x1="49.78" y1="92.55" x2="63.78" y2="119.99"/></svg>