<svg id="Capa_1" data-name="Capa 1" xmlns="http://www.w3.org/2000/svg" viewBox="0 0 116.24 122.02"><defs><style>.cls-1{fill:none;}.cls-1,.cls-3{stroke:#000;stroke-miterlimit:10;stroke-width:2px;}.cls-2{fill:#443e43;}.cls-3{fill:#d052e2;}</style></defs><title>coat</title><path class="cls-1" d="M1,68.73" transform="translate(-6.3 -0.32)"/><line class="cls-1" x1="0.99" y1="94.1" x2="8.82" y2="17.41"/><path class="cls-1" d="M39.35,2.21,15.22,17.75Z" transform="translate(-6.3 -0.32)"/><polygon class="cls-2" points="57.15 50.53 57.43 82.49 57.15 82.49 39.73 41.82 27.38 9.02 33.04 1.86 57.15 50.53"/><polyline class="cls-1" points="57.15 82.49 39.73 41.82 27.38 9.02 33.04 1.86 57.15 50.53 57.43 82.49 57.78 121.02 21.61 121.02 20.94 73.69 20.94 45.72"/><path class="cls-1" d="M61.41,4.22H37.28l2.53-1.31" transform="translate(-6.3 -0.32)"/><path class="cls-1" d="M123,64.7" transform="translate(-6.3 -0.32)"/><path class="cls-1" d="M111.88,17.73l9.67,76.7Z" transform="translate(-6.3 -0.32)"/><path class="cls-1" d="M87.65,2.21,112.3,18.15Z" transform="translate(-6.3 -0.32)"/><polygon class="cls-2" points="81.35 1.86 87.02 9.02 72.65 40.85 57.51 81.53 57.15 50.53 81.35 1.86"/><polyline class="cls-1" points="57.51 81.53 57.97 121.02 94.14 121.02 93.45 73.69 93.45 45.72"/><polygon class="cls-1" points="57.51 81.53 72.65 40.85 87.02 9.02 81.35 1.86 57.15 50.53 57.51 81.53"/><line class="cls-1" x1="57.15" y1="82.49" x2="57.51" y2="81.53"/><line class="cls-1" x1="55.19" y1="3.87" x2="80.18" y2="3.87"/><polygon class="cls-3" points="69.41 54.38 81.35 54.38 81.35 60.48 81.35 66.39 69.41 66.39 69.41 54.38"/><line class="cls-1" x1="21.23" y1="94.1" x2="0.99" y2="94.1"/><line class="cls-1" x1="93.68" y1="94.1" x2="115.25" y2="94.1"/><polyline class="cls-1" points="65.16 121.03 57.78 95.97 51.07 121.03"/></svg>